<?xml version="1.0" standalone="no"?>
<!DOCTYPE svg PUBLIC "-//W3C//DTD SVG 20010904//EN"
 "http://www.w3.org/TR/2001/REC-SVG-20010904/DTD/svg10.dtd">
<svg version="1.0" xmlns="http://www.w3.org/2000/svg"
 width="260.000000pt" height="260.000000pt" viewBox="0 0 260.000000 260.000000"
 preserveAspectRatio="xMidYMid meet">
<metadata>
Created by potrace 1.11, written by Peter Selinger 2001-2013
</metadata>
<g transform="translate(0.000000,260.000000) scale(0.100000,-0.100000)"
fill="#000000" stroke="none">
<path d="M1294 2498 c-53 -27 -73 -47 -95 -89 -51 -101 -12 -231 84 -278 48
-24 51 -23 -95 -22 -49 0 -89 -3 -89 -7 -1 -4 -2 -36 -3 -73 l-2 -65 86 1 c47
0 92 -3 100 -6 13 -6 15 -58 14 -396 0 -213 3 -393 7 -398 6 -9 63 -11 152 -6
16 1 17 27 17 400 0 310 3 400 13 403 6 2 55 4 107 3 l95 -2 -1 71 0 71 -121
0 c-67 0 -119 3 -116 8 2 4 10 7 16 7 24 0 90 64 108 104 24 54 24 127 0 174
-22 44 -80 104 -93 96 -4 -3 -8 -1 -8 4 0 10 -5 11 -81 17 -44 3 -66 -1 -95
-17z m149 -93 c25 -10 47 -57 47 -99 0 -109 -157 -141 -204 -42 -26 55 -8 113
45 145 30 18 61 17 112 -4z m175 -368 c3 -22 -1 -27 -20 -28 -13 0 -59 -1
-103 -2 l-80 -2 -5 -405 -5 -405 -25 5 -25 5 0 400 -1 400 -64 2 c-36 1 -82 2
-102 2 -33 1 -37 4 -35 22 2 11 8 24 14 27 6 4 109 7 230 7 l218 -1 3 -27z"/>
<path d="M1155 1835 c-198 -46 -319 -198 -301 -379 15 -154 127 -274 290 -311
90 -20 91 -19 94 57 3 74 -1 80 -68 92 -103 18 -168 143 -133 258 24 82 78
124 183 142 11 2 16 20 18 73 3 82 -2 86 -83 68z m28 -73 c-2 -10 -25 -25 -54
-35 -56 -20 -106 -66 -135 -123 -26 -53 -26 -185 -1 -232 32 -59 70 -94 134
-123 45 -20 61 -32 57 -43 -5 -13 -12 -13 -56 1 -96 28 -155 79 -197 168 -20
43 -23 61 -19 133 3 58 9 86 19 93 8 5 10 9 6 9 -11 0 31 60 62 88 31 29 74
53 121 68 53 18 69 17 63 -4z"/>
<path d="M1511 1770 c1 -74 1 -74 65 -86 60 -11 123 -65 146 -123 9 -26 13
-101 6 -132 -6 -24 -38 -71 -67 -97 -30 -25 -90 -48 -137 -51 -8 -1 -12 -28
-13 -76 l-1 -75 42 6 c155 21 268 95 325 213 23 48 27 68 27 141 0 103 -24
160 -95 232 -68 69 -179 118 -266 118 l-32 0 0 -70z m176 -26 c87 -42 156
-136 165 -229 3 -22 -2 -65 -10 -95 -27 -107 -101 -179 -219 -214 -51 -14 -53
-14 -53 5 0 11 8 22 18 25 87 28 139 68 174 134 32 62 32 176 1 236 -29 55
-82 99 -143 121 -35 13 -50 23 -50 36 0 16 5 18 33 12 17 -4 55 -18 84 -31z"/>
<path d="M695 1300 c-77 -37 -115 -89 -115 -159 0 -40 27 -111 42 -111 4 0 8
-4 8 -10 0 -5 -17 -10 -38 -10 l-38 0 -44 -132 c-24 -73 -46 -137 -49 -143 -3
-5 -6 -14 -7 -20 -1 -5 -27 -82 -57 -170 -126 -370 -147 -434 -147 -444 0 -8
49 -11 167 -9 l166 3 11 31 11 31 25 -23 c46 -44 88 -57 185 -57 74 0 101 5
154 27 36 14 66 26 67 26 1 0 0 -9 -3 -20 -5 -20 0 -20 275 -20 212 0 282 3
289 12 6 7 47 123 93 258 94 279 105 305 154 348 34 30 100 55 128 50 25 -5
39 -37 34 -75 -3 -21 -45 -157 -95 -301 -50 -145 -91 -270 -91 -278 0 -11 30
-14 165 -14 91 0 165 2 165 4 0 1 12 34 26 72 14 38 27 76 29 84 2 8 31 96 65
195 85 249 93 279 93 370 0 110 -28 158 -112 193 -81 34 -199 26 -297 -19 -25
-12 -46 -20 -48 -18 -3 2 6 30 19 61 13 31 26 71 30 87 l7 31 -155 0 -154 0
-16 -42 c-8 -24 -30 -85 -48 -135 -30 -83 -49 -115 -49 -81 0 22 -52 78 -89
98 -57 29 -85 33 -201 34 -114 0 -160 -6 -259 -35 -36 -11 -71 -21 -78 -22 -7
-2 -16 -6 -19 -10 -16 -15 -23 -5 -14 19 14 35 14 34 -27 34 l-38 0 36 30 c39
31 81 115 84 165 5 91 -134 146 -240 95z m138 -62 c30 -15 33 -34 13 -82 -24
-57 -79 -96 -141 -101 -16 -1 -45 40 -51 74 -16 77 98 146 179 109z m1019
-167 c5 -1 -31 -114 -59 -181 -3 -8 -7 -19 -9 -25 -17 -58 -18 -55 17 -55 25
0 45 11 77 40 94 86 229 125 327 95 52 -15 67 -29 82 -71 17 -49 8 -120 -33
-244 -21 -63 -39 -117 -39 -120 -1 -3 -4 -12 -8 -20 -3 -8 -27 -78 -53 -155
-25 -77 -50 -147 -55 -155 -6 -12 -28 -15 -94 -15 -82 0 -86 1 -82 20 11 42
18 65 82 250 58 168 78 237 78 270 -1 39 -17 74 -44 97 -28 24 -39 27 -93 24
-34 -1 -75 -10 -92 -19 -40 -20 -109 -89 -128 -125 -11 -22 -103 -277 -109
-305 -1 -4 -18 -54 -37 -110 l-35 -101 -77 -1 c-43 -1 -78 2 -78 5 0 7 67 207
77 230 3 8 7 20 8 25 2 6 6 23 10 38 8 29 7 29 -36 25 l-44 -3 -55 -160 -55
-160 -78 0 c-43 0 -81 3 -83 6 -2 4 3 26 11 49 22 62 20 70 -17 67 -22 -2 -47
-16 -73 -41 -42 -39 -121 -84 -164 -94 -44 -9 -148 -4 -173 9 -54 29 -75 81
-58 151 14 62 13 63 -25 63 l-35 1 -31 -96 c-17 -52 -36 -99 -41 -105 -9 -10
-178 -15 -178 -4 0 3 27 87 61 185 33 98 62 186 65 194 2 8 32 98 67 200 l64
185 74 2 c120 2 117 18 43 -195 -35 -103 -66 -194 -68 -202 -3 -8 -12 -35 -20
-59 -23 -62 -21 -68 17 -66 39 2 57 11 57 30 0 31 134 137 153 123 2 -2 10 2
18 8 13 11 39 18 104 28 41 7 125 18 155 21 155 16 155 16 166 74 10 49 -7
101 -39 125 -53 39 -229 29 -341 -19 -20 -9 -20 -10 -2 50 9 32 20 44 44 51
15 4 32 9 37 11 112 37 322 48 385 19 51 -23 68 -39 84 -78 20 -47 10 -173
-16 -205 -6 -7 -8 -13 -5 -13 3 0 -3 -22 -13 -49 -10 -28 -16 -52 -13 -54 6
-6 76 3 85 11 6 7 166 442 173 474 11 48 21 54 92 52 37 0 71 -2 75 -3z m-627
-303 c3 -3 8 -17 11 -32 3 -20 0 -26 -13 -27 -10 0 -27 -2 -38 -3 -11 -2 -45
-6 -75 -10 -30 -4 -66 -9 -80 -11 -14 -2 -45 -7 -69 -10 -50 -7 -121 -30 -164
-52 -16 -8 -31 -12 -34 -10 -2 3 5 33 17 66 l23 61 29 -25 c26 -22 31 -23 51
-11 29 19 124 54 167 61 19 3 36 7 37 9 6 6 132 0 138 -6z"/>
<path d="M1187 564 c-1 -1 -24 -5 -52 -8 -172 -19 -236 -49 -274 -131 -23 -49
-21 -107 5 -133 78 -77 256 -22 329 102 23 39 65 148 65 168 0 7 -66 9 -73 2z
m-61 -141 c-39 -58 -89 -87 -149 -88 -43 0 -52 3 -55 20 -3 10 4 34 13 52 20
37 68 59 147 68 29 4 55 9 58 12 3 2 6 -2 8 -10 2 -9 -8 -33 -22 -54z"/>
</g>
</svg>
